<svg version="1.1" id="Layer_1" xmlns="http://www.w3.org/2000/svg" xmlns:xlink="http://www.w3.org/1999/xlink" x="0px" y="0px"
	 width="100%" viewBox="0 0 247 195" enable-background="new 0 0 247 195" xml:space="preserve">
<path fill="#FEFEFF" opacity="1.000000" stroke="none" 
	d="
M177.000000,196.000000 
	C118.000000,196.000000 59.500008,196.000000 1.000008,196.000000 
	C1.000005,131.000000 1.000005,66.000015 1.000003,1.000017 
	C83.333321,1.000011 165.666641,1.000011 247.999969,1.000005 
	C247.999985,65.999985 247.999985,130.999969 248.000000,195.999969 
	C224.500000,196.000000 201.000000,196.000000 177.000000,196.000000 
M144.024048,172.310547 
	C146.886719,173.171783 149.813889,173.864716 152.597839,174.931396 
	C157.490219,176.805954 161.976135,176.322418 166.903336,174.411743 
	C180.995804,168.946976 195.257111,163.904770 209.544815,158.964737 
	C213.358521,157.646133 214.859177,155.953125 214.833786,151.631546 
	C214.620331,115.309700 214.712219,78.986053 214.712219,42.662952 
	C214.712219,41.050274 214.712234,39.437599 214.712234,37.403515 
	C212.681107,38.050533 211.104843,38.493103 209.570374,39.050686 
	C194.272202,44.609653 179.013672,50.281139 163.652298,55.659103 
	C161.353592,56.463871 158.409500,56.543537 156.056152,55.896278 
	C137.803513,50.876148 119.507378,45.957947 101.472160,40.229134 
	C93.439888,37.677711 86.374825,37.785164 78.557724,40.973995 
	C64.272781,46.801243 49.624928,51.738846 35.279083,56.992340 
	C35.279083,96.917076 35.279083,136.476807 35.279083,176.447159 
	C37.051003,175.894150 38.467930,175.512177 39.842606,175.013687 
	C55.146507,169.463974 70.407738,163.792465 85.779999,158.439606 
	C88.229317,157.586716 91.350082,157.476318 93.853096,158.155411 
	C110.360771,162.634064 126.784309,167.422775 144.024048,172.310547 
z"/>
<path fill="#273957" opacity="1.000000" stroke="none" 
	d="
M143.629669,172.210480 
	C126.784309,167.422775 110.360771,162.634064 93.853096,158.155411 
	C91.350082,157.476318 88.229317,157.586716 85.779999,158.439606 
	C70.407738,163.792465 55.146507,169.463974 39.842606,175.013687 
	C38.467930,175.512177 37.051003,175.894150 35.279083,176.447159 
	C35.279083,136.476807 35.279083,96.917076 35.279083,56.992340 
	C49.624928,51.738846 64.272781,46.801243 78.557724,40.973995 
	C86.374825,37.785164 93.439888,37.677711 101.472160,40.229134 
	C119.507378,45.957947 137.803513,50.876148 156.056152,55.896278 
	C158.409500,56.543537 161.353592,56.463871 163.652298,55.659103 
	C179.013672,50.281139 194.272202,44.609653 209.570374,39.050686 
	C211.104843,38.493103 212.681107,38.050533 214.712234,37.403515 
	C214.712234,39.437599 214.712219,41.050274 214.712219,42.662952 
	C214.712219,78.986053 214.620331,115.309700 214.833786,151.631546 
	C214.859177,155.953125 213.358521,157.646133 209.544815,158.964737 
	C195.257111,163.904770 180.995804,168.946976 166.903336,174.411743 
	C161.976135,176.322418 157.490219,176.805954 152.597839,174.931396 
	C149.813889,173.864716 146.886719,173.171783 143.629669,172.210480 
M94.709877,75.499931 
	C94.709892,97.968285 94.792435,120.437248 94.628197,142.904404 
	C94.601028,146.621796 95.393669,148.349701 99.351257,149.402908 
	C115.537506,153.710526 131.594009,158.505493 147.700089,163.114746 
	C149.994781,163.771423 152.299316,164.393707 154.992340,165.140976 
	C154.992340,132.502518 155.032761,100.559204 154.837692,68.617325 
	C154.830231,67.398598 152.750473,65.522041 151.296631,65.086723 
	C137.313278,60.899822 123.257851,56.953495 109.220863,52.945984 
	C104.546211,51.611393 99.865227,50.298973 94.709793,48.841469 
	C94.709793,57.895050 94.709793,66.197495 94.709877,75.499931 
M74.638939,53.060394 
	C66.043686,56.133579 57.490383,59.332836 48.831253,62.214058 
	C45.643059,63.274895 44.598087,64.831398 44.616386,68.270348 
	C44.775829,98.232574 44.704899,128.196014 44.720524,158.159088 
	C44.721188,159.432037 44.899342,160.704910 45.024052,162.367706 
	C46.628262,161.885361 47.886795,161.565094 49.105015,161.131516 
	C59.581417,157.403000 70.004044,153.514832 80.548935,149.992294 
	C83.900421,148.872726 85.112976,147.377945 85.091965,143.708328 
	C84.921318,113.912689 84.999901,84.115646 84.984222,54.319038 
	C84.983482,52.908569 84.809799,51.498188 84.680710,49.543373 
	C81.270668,50.760212 78.335754,51.807510 74.638939,53.060394 
M204.992950,147.958221 
	C204.992950,115.967918 204.992950,83.977615 204.992950,51.257175 
	C192.396255,55.760941 180.762543,60.102638 168.987503,64.019470 
	C165.450363,65.196060 164.619278,66.978104 164.634384,70.450676 
	C164.763321,100.070045 164.703827,129.690216 164.720718,159.310135 
	C164.721603,160.857407 164.903732,162.404587 165.035416,164.488708 
	C178.301239,159.748550 190.934052,155.254013 203.535492,150.673218 
	C204.153442,150.448578 204.497162,149.469604 204.992950,147.958221 
z"/>
<path fill="#FEFEFE" opacity="1.000000" stroke="none" 
	d="
M94.709839,74.999931 
	C94.709793,66.197495 94.709793,57.895050 94.709793,48.841469 
	C99.865227,50.298973 104.546211,51.611393 109.220863,52.945984 
	C123.257851,56.953495 137.313278,60.899822 151.296631,65.086723 
	C152.750473,65.522041 154.830231,67.398598 154.837692,68.617325 
	C155.032761,100.559204 154.992340,132.502518 154.992340,165.140976 
	C152.299316,164.393707 149.994781,163.771423 147.700089,163.114746 
	C131.594009,158.505493 115.537506,153.710526 99.351257,149.402908 
	C95.393669,148.349701 94.601028,146.621796 94.628197,142.904404 
	C94.792435,120.437248 94.709892,97.968285 94.709839,74.999931 
z"/>
<path fill="#FDFDFE" opacity="1.000000" stroke="none" 
	d="
M75.019890,52.957600 
	C78.335754,51.807510 81.270668,50.760212 84.680710,49.543373 
	C84.809799,51.498188 84.983482,52.908569 84.984222,54.319038 
	C84.999901,84.115646 84.921318,113.912689 85.091965,143.708328 
	C85.112976,147.377945 83.900421,148.872726 80.548935,149.992294 
	C70.004044,153.514832 59.581417,157.403000 49.105015,161.131516 
	C47.886795,161.565094 46.628262,161.885361 45.024052,162.367706 
	C44.899342,160.704910 44.721188,159.432037 44.720524,158.159088 
	C44.704899,128.196014 44.775829,98.232574 44.616386,68.270348 
	C44.598087,64.831398 45.643059,63.274895 48.831253,62.214058 
	C57.490383,59.332836 66.043686,56.133579 75.019890,52.957600 
z"/>
<path fill="#FDFDFE" opacity="1.000000" stroke="none" 
	d="
M204.980774,148.400055 
	C204.497162,149.469604 204.153442,150.448578 203.535492,150.673218 
	C190.934052,155.254013 178.301239,159.748550 165.035416,164.488708 
	C164.903732,162.404587 164.721603,160.857407 164.720718,159.310135 
	C164.703827,129.690216 164.763321,100.070045 164.634384,70.450676 
	C164.619278,66.978104 165.450363,65.196060 168.987503,64.019470 
	C180.762543,60.102638 192.396255,55.760941 204.992950,51.257175 
	C204.992950,83.977615 204.992950,115.967918 204.980774,148.400055 
z"/>
</svg>