<svg version="1.1" id="Layer_1" xmlns="http://www.w3.org/2000/svg" xmlns:xlink="http://www.w3.org/1999/xlink" x="0px" y="0px"
	 width="100%" viewBox="0 0 301 215" enable-background="new 0 0 301 215" xml:space="preserve">
<path fill="#FEFEFE" opacity="1.000000" stroke="none" 
	d="
M209.000000,216.000000 
	C139.333344,216.000000 70.166687,216.000000 1.000019,216.000000 
	C1.000012,144.333344 1.000012,72.666702 1.000006,1.000038 
	C101.333305,1.000025 201.666611,1.000025 301.999939,1.000013 
	C301.999939,72.666634 301.999939,144.333267 301.999969,215.999939 
	C271.166656,216.000000 240.333328,216.000000 209.000000,216.000000 
M64.943970,182.144699 
	C67.555672,186.214493 71.082664,186.631485 75.367996,185.049789 
	C90.643082,179.411880 105.901108,173.715271 121.307434,168.456360 
	C124.301018,167.434509 128.230743,167.395172 131.217133,168.409164 
	C146.159210,173.482468 160.966019,178.964218 175.738678,184.519592 
	C179.556198,185.955215 182.936661,186.009293 186.785110,184.569580 
	C202.970810,178.514465 219.255249,172.723404 235.499786,166.825317 
	C242.536240,164.270493 243.694809,162.611771 243.696701,155.063904 
	C243.703445,128.066208 243.701019,101.068497 243.697479,74.070793 
	C243.697006,70.404762 243.894531,66.720825 243.603287,63.076916 
	C243.174576,57.713036 238.728195,54.738052 233.689407,56.536793 
	C223.517609,60.167908 213.422699,64.016426 203.331955,67.869263 
	C202.394928,68.227036 201.285065,69.112122 200.985870,69.998817 
	C199.254349,75.130302 197.742111,80.335777 196.012405,85.983902 
	C207.047897,81.989349 217.819962,78.090157 229.003281,74.042099 
	C229.003281,97.621437 229.003281,120.445549 229.003281,143.269669 
	C229.003281,153.217056 229.016998,153.254303 219.748047,156.667175 
	C209.654877,160.383545 199.532806,164.021408 188.839355,167.905609 
	C188.839355,144.683975 188.839355,122.158760 188.839355,98.639160 
	C184.328217,105.235382 180.233704,110.851891 176.586029,116.744980 
	C175.197083,118.988937 174.158371,121.856750 174.115585,124.459236 
	C173.880402,138.765656 174.003296,153.077942 174.003296,168.017273 
	C160.939377,163.227142 148.316940,158.673737 135.791321,153.867996 
	C134.758072,153.471558 133.828644,151.378098 133.792374,150.047455 
	C133.597122,142.886719 133.724304,135.717728 133.687119,128.551849 
	C133.672485,125.731979 134.503754,122.336121 133.250519,120.199066 
	C129.124039,113.162399 124.219948,106.581757 119.003258,98.929306 
	C119.003258,116.334938 118.875557,132.498062 119.100288,148.656311 
	C119.151329,152.326233 117.920944,153.837799 114.555099,154.985077 
	C104.651466,158.360794 94.890503,162.153717 85.055763,165.734100 
	C83.129112,166.435516 81.122108,166.916183 79.051010,167.528580 
	C78.881340,166.482635 78.733078,165.994034 78.732697,165.505341 
	C78.713867,141.007553 78.647430,116.509277 78.846191,92.013161 
	C78.858429,90.505127 80.665520,88.236290 82.161491,87.643303 
	C90.927078,84.168716 99.848671,81.087685 108.630844,77.905357 
	C107.588654,72.758324 106.642525,68.085747 105.663887,63.252613 
	C94.197426,67.347145 82.922882,71.345222 71.669617,75.402313 
	C65.204475,77.733170 64.009117,79.497475 64.007065,86.482635 
	C63.998310,116.313431 63.993393,146.144241 64.027992,175.974991 
	C64.030090,177.782806 64.386360,179.590195 64.943970,182.144699 
M125.100700,39.640251 
	C116.328156,51.151493 113.898003,63.594322 119.733833,77.169540 
	C126.976952,94.018379 137.849564,108.579224 148.982605,122.938614 
	C151.980179,126.804871 156.223267,126.450829 159.374207,122.096413 
	C166.498062,112.251678 173.664597,102.412918 180.215256,92.188278 
	C183.776245,86.630104 186.332306,80.381226 188.944046,74.273849 
	C192.096436,66.902267 191.699799,59.295357 189.274734,51.773350 
	C180.744156,25.313244 145.965759,16.303303 125.100700,39.640251 
z"/>
<path fill="#243655" opacity="1.000000" stroke="none" 
	d="
M64.760902,181.771240 
	C64.386360,179.590195 64.030090,177.782806 64.027992,175.974991 
	C63.993393,146.144241 63.998310,116.313431 64.007065,86.482635 
	C64.009117,79.497475 65.204475,77.733170 71.669617,75.402313 
	C82.922882,71.345222 94.197426,67.347145 105.663887,63.252613 
	C106.642525,68.085747 107.588654,72.758324 108.630844,77.905357 
	C99.848671,81.087685 90.927078,84.168716 82.161491,87.643303 
	C80.665520,88.236290 78.858429,90.505127 78.846191,92.013161 
	C78.647430,116.509277 78.713867,141.007553 78.732697,165.505341 
	C78.733078,165.994034 78.881340,166.482635 79.051010,167.528580 
	C81.122108,166.916183 83.129112,166.435516 85.055763,165.734100 
	C94.890503,162.153717 104.651466,158.360794 114.555099,154.985077 
	C117.920944,153.837799 119.151329,152.326233 119.100288,148.656311 
	C118.875557,132.498062 119.003258,116.334938 119.003258,98.929306 
	C124.219948,106.581757 129.124039,113.162399 133.250519,120.199066 
	C134.503754,122.336121 133.672485,125.731979 133.687119,128.551849 
	C133.724304,135.717728 133.597122,142.886719 133.792374,150.047455 
	C133.828644,151.378098 134.758072,153.471558 135.791321,153.867996 
	C148.316940,158.673737 160.939377,163.227142 174.003296,168.017273 
	C174.003296,153.077942 173.880402,138.765656 174.115585,124.459236 
	C174.158371,121.856750 175.197083,118.988937 176.586029,116.744980 
	C180.233704,110.851891 184.328217,105.235382 188.839355,98.639160 
	C188.839355,122.158760 188.839355,144.683975 188.839355,167.905609 
	C199.532806,164.021408 209.654877,160.383545 219.748047,156.667175 
	C229.016998,153.254303 229.003281,153.217056 229.003281,143.269669 
	C229.003281,120.445549 229.003281,97.621437 229.003281,74.042099 
	C217.819962,78.090157 207.047897,81.989349 196.012405,85.983902 
	C197.742111,80.335777 199.254349,75.130302 200.985870,69.998817 
	C201.285065,69.112122 202.394928,68.227036 203.331955,67.869263 
	C213.422699,64.016426 223.517609,60.167908 233.689407,56.536793 
	C238.728195,54.738052 243.174576,57.713036 243.603287,63.076916 
	C243.894531,66.720825 243.697006,70.404762 243.697479,74.070793 
	C243.701019,101.068497 243.703445,128.066208 243.696701,155.063904 
	C243.694809,162.611771 242.536240,164.270493 235.499786,166.825317 
	C219.255249,172.723404 202.970810,178.514465 186.785110,184.569580 
	C182.936661,186.009293 179.556198,185.955215 175.738678,184.519592 
	C160.966019,178.964218 146.159210,173.482468 131.217133,168.409164 
	C128.230743,167.395172 124.301018,167.434509 121.307434,168.456360 
	C105.901108,173.715271 90.643082,179.411880 75.367996,185.049789 
	C71.082664,186.631485 67.555672,186.214493 64.760902,181.771240 
z"/>
<path fill="#213252" opacity="1.000000" stroke="none" 
	d="
M125.343613,39.379555 
	C145.965759,16.303303 180.744156,25.313244 189.274734,51.773350 
	C191.699799,59.295357 192.096436,66.902267 188.944046,74.273849 
	C186.332306,80.381226 183.776245,86.630104 180.215256,92.188278 
	C173.664597,102.412918 166.498062,112.251678 159.374207,122.096413 
	C156.223267,126.450829 151.980179,126.804871 148.982605,122.938614 
	C137.849564,108.579224 126.976952,94.018379 119.733833,77.169540 
	C113.898003,63.594322 116.328156,51.151493 125.343613,39.379555 
M157.381897,48.972000 
	C151.393036,47.524803 146.520660,49.241310 143.041397,54.331192 
	C140.241364,58.427422 140.562943,64.431114 143.542419,68.401642 
	C146.778793,72.714516 151.911118,74.450722 157.276443,73.047699 
	C162.299347,71.734230 165.800034,67.664864 166.414352,62.425377 
	C167.100464,56.573380 164.479630,52.365189 157.381897,48.972000 
z"/>
<path fill="#F9F9FA" opacity="1.000000" stroke="none" 
	d="
M157.756271,49.048241 
	C164.479630,52.365189 167.100464,56.573380 166.414352,62.425377 
	C165.800034,67.664864 162.299347,71.734230 157.276443,73.047699 
	C151.911118,74.450722 146.778793,72.714516 143.542419,68.401642 
	C140.562943,64.431114 140.241364,58.427422 143.041397,54.331192 
	C146.520660,49.241310 151.393036,47.524803 157.756271,49.048241 
z"/>
</svg>